# xmcd
#
# Track frame offsets:
#	183
#	20720
#	38740
#	80190
#	96233
#	125513
#	148015
#	168743
#	186855
#	250020
#	290348
#
# Disc length: 4315 seconds
#
# Revision: 1
# Processed by: cddbd v1.5.1PL0 Copyright (c) Steve Scherf et al.
# Submitted via: EasyCDDAExtractor 7.0.5.4
#
DISCID=a010d90b
DTITLE=Foolhouse Bluesband - Live im Colos-Saal
DYEAR=1994
DGENRE=Blues
TTITLE0=You Ain't Nothing But A Hound Dog
TTITLE1=Trouble In Mind
TTITLE2=Ball and Chain
TTITLE3=It Ain't Right
TTITLE4=Further On Up The Road
TTITLE5=Summertime
TTITLE6=Crazy 'bout You Baby
TTITLE7=On The Road Again
TTITLE8=Mother Earth
TTITLE9=Everyday I Have...
TTITLE10=Did You Ever
EXTD=
EXTT0=
EXTT1=
EXTT2=
EXTT3=
EXTT4=
EXTT5=
EXTT6=
EXTT7=
EXTT8=
EXTT9=
EXTT10=
PLAYORDER=
